PathFileType	4	(X/Y/Z)	C:/Users/beibeiliu/ov580/test_trc/User3\sequence.38_training_dense_right.trc
DataRate	CameraRate	NumFrames	NumMarkers	Units	OrigDataRate	OrigDataStartFrame	OrigNumFrames
120	120	18	19	mm	120	98	260
Frame#	Time	ThumbCMC			ThumbMCP			ThumbIP			ThumbTip			IndexMCP			IndexPIP			IndexTip			MiddleMCP			MiddlePIP			MiddleTip			RingMCP			RingPIP			RingTip			PinkyMCP			PinkyPIP			PinkyTip			BackHand1			BackHand2			BackHand3	
		X0	Y0	Z0	X1	Y1	Z1	X2	Y2	Z2	X3	Y3	Z3	X4	Y4	Z4	X5	Y5	Z5	X6	Y6	Z6	X7	Y7	Z7	X8	Y8	Z8	X9	Y9	Z9	X10	Y10	Z10	X11	Y11	Z11	X12	Y12	Z12	X13	Y13	Z13	X14	Y14	Z14	X15	Y15	Z15	X16	Y16	Z16	X17	Y17	Z17	X18	Y18	Z18	
97	0.808333	66.7864	-12.4824	39.7317	46.8427	-6.08707	15.836	34.6519	-3.17215	-10.21	22.1633	-3.83214	-30.632	62.3484	-4.45955	-38.9274	39.4801	-23.2524	-45.9239	34.7938	-38.0397	-15.8178	75.0331	-27.1228	-45.0733	50.4425	-45.7508	-42.5448	55.6647	-49.0354	-1.15812	85.8963	-39.8792	-39.6771	64.6025	-63.2595	-33.1514	68.9871	-58.7155	0.380334	102.617	-51.7437	-34.4021	80.1374	-66.2326	-40.8043	70.4835	-73.4905	-10.0797	119.289	-23.1525	7.92027	125.469	-31.7661	33.4587	100.096	-6.15032	29.4898	
98	0.816667	66.1419	-9.56281	38.865	48.58	-3.09237	10.9815	37.1061	0.38887	-12.2713	33.2177	-3.95557	-34.0824	64.7641	-8.43205	-39.5069	40.3875	-25.1515	-44.9304	35.6057	-37.9338	-12.2865	74.2686	-27.5066	-44.4482	47.4563	-47.0678	-38.0473	55.204	-50.2862	-2.46708	85.4198	-43.6553	-40.0508	62.7862	-64.3877	-30.768	67.2876	-56.5814	1.4852	100.315	-54.2401	-34.6058	78.266	-67.275	-39.4594	69.0823	-74.7304	-9.47671	119.466	-27.8381	6.914	125.383	-34.776	32.913	98.0401	-4.93378	25.0986	
99	0.825	71.0169	-12.1548	40.9683	56.5966	0.0741755	13.3153	49.7783	7.10586	-17.5939	46.2979	2.74907	-40.4184	70.0176	-9.56729	-38.2511	40.1129	-27.1454	-44.2458	35.136	-36.5804	-13.7565	75.3539	-29.6255	-45.7724	48.7075	-45.1222	-41.1019	51.7721	-49.9737	-3.00173	87.0849	-46.9213	-39.3879	60.154	-61.4386	-33.289	62.8534	-56.539	-0.448595	97.9782	-55.6362	-35.9014	74.2049	-68.8965	-37.5832	67.5414	-69.9198	-7.69836	122.722	-32.2169	4.41122	125.268	-38.0157	36.3587	105.345	-7.6141	23.7142	
100	0.833333	76.7659	-9.43194	35.1858	65.5671	6.45529	11.4321	62.9181	12.4155	-18.692	59.4457	11.2856	-42.9342	71.5917	-9.65159	-40.6285	42.6758	-25.9745	-44.2497	35.54	-36.9586	-17.0128	81.1416	-30.5299	-43.3104	48.3838	-45.7455	-40.6722	48.3221	-48.1935	-2.83126	85.4229	-47.3994	-41.1461	58.3525	-60.1468	-33.215	60.7654	-58.6943	-0.880529	99.6226	-64.2615	-35.1581	72.9173	-69.6792	-37.9957	63.1473	-70.1701	-7.61774	123.811	-37.4373	5.54778	124.522	-39.7973	33.7032	105.93	-9.78951	24.7576	
101	0.841667	78.4497	-6.78084	40.5313	73.7126	5.13973	12.3749	70.7524	13.9501	-15.1507	67.3836	17.0116	-39.6219	74.5049	-9.39822	-40.376	43.491	-23.0776	-44.2604	35.0594	-36.7799	-19.8152	78.5677	-31.4484	-45.308	51.7489	-44.8602	-43.2192	48.5997	-51.7195	-2.24086	87.5843	-48.2963	-40.0413	60.997	-62.7683	-35.8674	58.4376	-57.789	-0.829367	99.1024	-66.191	-34.0289	71.5533	-69.28	-37.2815	60.1897	-71.5802	-8.65275	125.054	-39.0369	5.70487	125.785	-45.9039	38.1278	110.619	-10.6956	28.2364	
102	0.85	80.0207	-4.74897	40.3424	74.0105	10.2755	14.4873	71.9291	17.6081	-15.0731	66.9601	22.4856	-37.4972	76.8695	-7.91308	-38.5964	45.0479	-21.6905	-46.0734	34.0974	-36.7711	-16.9511	82.1486	-33.3197	-44.3496	48.2399	-41.726	-42.7441	44.3666	-51.3763	-3.33475	86.9309	-52.2049	-40.2478	60.0483	-60.7358	-36.7851	56.1831	-60.251	-1.54511	97.0339	-65.0099	-33.3361	73.7677	-71.3021	-38.1907	58.0963	-73.0057	-9.25143	125.022	-41.901	6.68447	125.059	-43.0062	39.6852	112.695	-13.7999	26.999	
103	0.858333	79.165	-8.75538	39.108	72.5509	6.40727	13.4043	66.881	19.4173	-15.8354	61.0165	24.7201	-36.3387	75.9364	-11.7492	-40.2217	45.7416	-24.6252	-47.051	31.8337	-36.1786	-20.3701	80.4726	-32.9622	-44.3204	50.3241	-45.3253	-44.185	43.3818	-51.1625	-1.68679	87.1437	-49.4036	-39.0151	58.4263	-61.0278	-36.4485	54.3031	-61.6788	-4.14203	98.4929	-66.0436	-31.2067	73.5213	-72.3378	-37.6177	55.9608	-74.0061	-11.2855	123.149	-41.6164	7.34843	125.234	-43.4289	39.6958	111.047	-14.3032	26.1555	
104	0.866667	77.4841	-8.66109	36.6551	65.5252	3.29398	15.0002	56.3547	15.7539	-14.6132	48.0872	21.3385	-34.3544	73.6102	-12.5859	-39.9477	46.047	-27.8872	-47.1873	32.2085	-40.8335	-21.3034	79.6717	-36.0563	-44.7477	48.3782	-48.2192	-43.1364	43.1525	-53.6352	-6.44741	89.1669	-52.529	-37.7465	56.7937	-63.5826	-35.2159	53.7811	-62.3229	-3.90589	95.6237	-65.6494	-33.2221	71.9125	-73.2694	-35.9188	56.9987	-75.9102	-6.22879	124.8	-41.4985	6.87183	128.11	-43.6482	34.208	106.787	-11.35	24.0034	
105	0.875	74.5707	-10.506	39.84	58.232	-0.190363	13.1212	46.9742	6.20968	-11.0802	39.2805	7.53823	-36.3188	69.3053	-12.1672	-39.4742	41.5289	-31.828	-45.0884	29.6616	-40.2905	-19.6066	75.967	-31.8349	-44.6137	45.8875	-49.5108	-41.4072	43.3557	-53.7334	-2.98556	83.2018	-51.3381	-41.0876	58.373	-64.3125	-37.0931	54.448	-65.6724	-3.55368	97.0736	-68.4264	-32.2652	70.4171	-76.0911	-34.8494	58.5477	-73.0049	-7.16939	120.482	-36.363	6.46313	125.284	-39.4553	35.3104	106.569	-15.0489	26.8065	
106	0.883333	69.8508	-7.70794	38.3644	51.0304	-1.7224	10.6558	37.3576	0.920199	-11.211	25.3247	0.477354	-30.7703	70.1411	-12.5377	-37.2442	40.1805	-29.2489	-46.6824	30.3952	-41.1472	-16.9748	77.8019	-34.0451	-43.0294	45.8574	-50.5265	-40.5264	46.7009	-56.7686	-2.81007	82.2098	-51.665	-40.298	57.0523	-67.9795	-31.9941	58.7386	-63.4917	1.72382	97.7108	-66.3377	-28.5282	70.1129	-79.4392	-34.1238	60.2546	-80.1447	-6.38245	120.157	-40.4672	7.07435	124.203	-40.999	33.9109	103.271	-10.8926	24.6835	
107	0.891667	69.5174	-11.7217	37.1279	47.4724	-5.42285	17.2597	34.0136	-4.48121	-10.6485	21.251	-5.88205	-31.6131	66.4981	-11.9036	-39.9767	38.815	-30.1812	-46.3737	31.1973	-42.6486	-17.0653	76.0311	-35.1039	-42.5164	45.5407	-49.9927	-41.7296	48.9969	-54.5403	0.685352	82.5018	-53.8746	-39.1951	55.7678	-70.6902	-30.4421	57.1546	-62.1722	1.01875	96.9917	-66.7601	-30.9667	69.7318	-76.2624	-34.6643	60.0919	-76.2832	-7.61203	120.438	-41.2517	5.59292	123.423	-41.9039	33.9283	105.003	-11.4417	25.992	
108	0.9	68.8831	-12.3651	37.4901	48.7276	-9.56158	16.4421	32.6021	-6.02285	-11.8132	23.9154	-12.584	-34.5167	66.6081	-12.7788	-39.5649	38.2081	-30.6733	-46.9775	28.2878	-39.3971	-18.6846	74.5318	-33.3328	-42.3073	45.5785	-50.8312	-42.1729	46.3638	-53.653	-1.61906	84.122	-54.9222	-37.4554	55.219	-70.879	-30.1901	58.8794	-63.3344	0.841693	95.8158	-68.2269	-31.0514	70.8906	-80.1972	-35.8377	58.0299	-75.5489	-6.3783	118.907	-38.7946	6.13548	124.184	-41.3407	36.5819	102.989	-14.9278	26.7729	
109	0.908333	69.0368	-14.8256	39.7868	48.3745	-6.94386	11.6443	37.2914	-8.31044	-14.9385	27.682	-11.2084	-36.6477	68.854	-15.7867	-38.5722	37.617	-31.8121	-46.0833	30.413	-39.6566	-14.426	70.9674	-36.4568	-45.2788	43.9612	-52.2908	-41.1309	50.8472	-55.0738	0.976645	81.8011	-54.4133	-38.7416	56.873	-69.7965	-32.0114	61.2978	-62.4919	4.02809	96.3225	-70.0477	-31.6171	70.134	-77.1882	-36.0865	59.3429	-78.8457	-4.29499	118.185	-40.1226	2.27786	123.989	-40.559	34.0118	103.025	-12.5594	23.85	
110	0.916667	70.0326	-13.0393	35.1514	52.5246	-5.855	11.3096	45.1619	-4.63238	-16.3613	39.8814	-7.57671	-37.2344	70.4009	-15.5628	-40.6827	43.6552	-32.2374	-48.6881	32.0621	-39.5282	-14.9201	74.7421	-35.6247	-43.5494	46.3918	-53.5228	-41.3047	46.933	-55.2536	-3.07853	81.7523	-53.6271	-39.0521	55.2813	-69.2005	-29.9403	61.3333	-63.4008	4.13195	94.5632	-68.5564	-31.9618	68.8781	-77.6315	-33.7292	61.2453	-74.9243	-4.76777	119.487	-42.4082	2.20173	124.219	-44.3744	33.2754	104.042	-12.9042	24.3105	
111	0.925	74.7765	-13.049	36.1054	65.3355	-5.20496	6.57974	59.5268	0.442818	-20.9907	55.3092	-1.15596	-44.8373	73.7826	-14.7649	-41.1588	43.7299	-30.5935	-48.1757	34.7964	-37.689	-18.575	77.7697	-33.8711	-44.2407	47.1256	-52.0328	-39.5879	48.4075	-54.839	-2.32074	83.2443	-56.4653	-39.0029	55.9779	-69.3327	-29.7664	60.9982	-61.5507	3.75945	93.5177	-71.5949	-35.911	65.5694	-78.3883	-32.4045	58.9195	-78.3896	-3.86512	120.535	-43.8585	7.92608	123.787	-45.6147	35.386	108.001	-17.7114	22.3154	
112	0.933333	80.3054	-8.74948	34.0468	72.6561	0.72505	7.91756	70.8089	5.18466	-21.0211	66.6589	5.13709	-46.0052	76.9776	-13.5839	-42.2141	47.3433	-23.329	-48.8212	35.7808	-33.8062	-20.6296	78.9858	-39.0035	-46.4693	46.2163	-46.3478	-39.4094	47.4433	-50.2081	0.776475	86.2108	-55.9992	-38.2359	55.8323	-65.928	-31.42	57.7702	-59.0462	1.88704	95.6909	-72.0878	-31.106	66.4663	-74.0071	-33.1365	58.4168	-74.1197	-6.73877	122.909	-47.7446	3.54477	124.864	-49.4651	37.8303	112.809	-18.5507	24.8662	
113	0.941667	84.192	-6.62018	36.8699	82.8575	3.62918	7.0727	79.8644	11.0599	-22.1456	76.3328	11.9624	-45.1749	79.4443	-13.99	-42.5352	51.1527	-22.6779	-48.6743	36.9032	-31.115	-19.5667	85.1524	-38.883	-43.282	47.9238	-43.6775	-40.2055	45.8017	-50.938	-4.87683	88.4029	-54.9966	-37.6563	56.3239	-61.6109	-32.9629	54.9563	-61.563	-0.386287	93.761	-72.564	-33.0623	67.3111	-77.9314	-35.0941	54.8563	-75.2533	-7.38778	123.841	-47.0798	8.0026	127.361	-54.1122	36.1346	114.904	-18.6591	22.1393	
114	0.95	90.8779	-8.87577	32.9764	86.2508	6.43134	11.0605	85.7745	14.5664	-18.024	83.1287	13.9551	-41.851	83.2611	-13.8527	-43.0737	52.3499	-21.5025	-46.6764	39.2885	-32.4927	-14.8978	83.6862	-34.6729	-44.7636	53.8044	-43.9769	-43.2247	45.4053	-45.9291	0.00786328	90.064	-58.4492	-37.9798	56.3306	-61.1809	-32.7178	54.2646	-57.0697	0.338486	93.7456	-70.8991	-33.6155	67.6567	-72.7413	-35.9817	53.2631	-71.8997	-7.56238	124.443	-51.5918	3.45696	126.897	-57.4976	39.1925	119.729	-22.727	21.3375	
